<svg width="727" height="245" viewBox="0 0 727 245" fill="none" xmlns="http://www.w3.org/2000/svg">
<path fill-rule="evenodd" clip-rule="evenodd" d="M140.5 14C145.153 21.297 149.82 28.6303 154.5 36C165.672 54.3489 177.338 72.349 189.5 90C201.106 71.778 212.439 53.4449 223.5 35C227.195 29.9551 230.528 24.6218 233.5 19C234.864 17.3089 236.197 15.6423 237.5 14C249.833 14 262.167 14 274.5 14C274.5 15.6667 274.5 17.3333 274.5 19C270.5 19 266.5 19 262.5 19C262.5 75.667 262.5 132.333 262.5 189C266.5 189 270.5 189 274.5 189C274.5 191 274.5 193 274.5 195C271.167 195 267.833 195 264.5 195C262.833 195 261.167 195 259.5 195C248.833 195 238.167 195 227.5 195C224.833 195 222.167 195 219.5 195C219.5 193 219.5 191 219.5 189C223.833 189 228.167 189 232.5 189C232.833 137.329 232.5 85.662 231.5 34C230.702 34.4569 230.369 35.1236 230.5 36C212.777 64.3989 195.444 93.066 178.5 122C177.201 123.973 176 125.5 174.5 127C155.194 94.398 135.86 61.7314 116.5 29C115.248 27.4991 114.248 25.8325 113.5 24C113.44 23.4569 113.107 23.1236 112.5 23C111.5 78.996 111.167 134.996 111.5 191C111 194.5 109.928 199.215 109 202C97.6353 236.094 76.3253 248.097 40.5 243.5C9.8516 234.395 -3.31506 213.895 0.999995 182C5.3684 165.806 15.2017 154.473 30.5 148C31.1667 148 33.8333 147 34.5 147C39.2829 145.991 41.5 145.5 46.5 145C55.3366 144.696 64.0033 145.696 72.5 148C81.5284 152.026 88.195 158.526 92.5 167.5C92.022 169.142 91.022 170.309 89.5 171C77.5162 153.919 61.8496 149.419 42.5 157.5C27 168 24.5053 182.135 27 199C32.4502 227.968 49.2835 238.468 77.5 230.5C90.809 224.362 99 215 103 200.5C103.966 197 104 196.5 104.5 194C105 191.5 105.446 189 105.5 186C106.499 130.502 106.832 74.836 106.5 19C100.167 19 93.833 19 87.5 19C87.5 17.3333 87.5 15.6667 87.5 14C105.167 14 122.833 14 140.5 14Z" fill="#8E5C15"/>
<path fill-rule="evenodd" clip-rule="evenodd" d="M76.4007 64.1114C76.4007 78.1114 76.4007 92.1115 76.4007 106.111C82.1019 106.085 87.9007 106.138 93.6996 106.138C93.6996 104.138 93.6996 101.138 93.6996 99.1381C94.6996 99.1381 95.6996 99.1381 96.6996 99.1381C96.6996 102.471 96.6996 105.805 96.6996 109.138C85.0329 109.138 73.3662 109.138 61.6995 109.138C61.6995 94.1382 61.6995 79.1381 61.6995 64.1381C59.77 64.1381 56.1872 64.1381 55 64.1381C55 62.9779 55.0001 63 55 61.5C60.0001 61.5001 78.0463 61.5 82.9007 61.5001C82.9007 62.5001 82.9007 62.6114 82.9007 64.1114C80.9007 64.1114 78.1995 64.1381 76.4007 64.1114Z" fill="#8D5B14"/>
<path fill-rule="evenodd" clip-rule="evenodd" d="M44.5 61C44.5 64.3333 44.5 67.0475 44.5 70.3808C43.5 70.3808 42.5 70.3808 41.5 70.3808C41.5 68 41.5 66.5 41.5 64.5C36.5 64.5 29.7012 64.3541 24.7012 64.3541C24.7012 70.5524 24.7012 76.3541 24.7012 82.3808C27.7012 82.3808 30.5 82.3808 33.5 82.3808C33.5 83.7138 33.5 85.0478 33.5 86.3808C30.8333 86.3808 27.3679 86.3808 24.7012 86.3808C24.7012 93.0864 24.5 98.8808 24.5 105.881C30.5 105.881 36.5 106.119 42.5 106C42.5 104 42.5 101.381 42.5 99.3808C43.5 99.3808 44.5 99.3808 45.5 99.3808C45.5 102.714 45.5 106.048 45.5 109.381C32.5 109.381 19.5 109.381 6.5 109.381C6.5 94.3808 6.5 79.3808 6.5 64.3808C4.5 64.3808 2.5 64.3808 0.5 64.3808C0.5 63.0475 0.5 62.3333 0.5 61C15.1667 61 29.8333 61 44.5 61Z" fill="#905E18"/>
<path fill-rule="evenodd" clip-rule="evenodd" d="M536 2.22057C531.5 0.72058 528.5 0.220577 523 1.22057C510.813 5.24521 503.313 13.5788 500.5 26.2206L499.5 153.221C498.958 156.013 498.124 158.679 497 161.221C486.805 183.996 470.138 191.33 447 183.221C440.127 179.861 435.294 174.528 432.5 167.221C431.599 164.201 430.766 161.201 430 158.221C428.798 154.854 428.558 151.93 428.229 147.912V147.908C428.16 147.065 428.087 146.174 428 145.221C428.003 142.366 428.336 133.199 429 130.721C432.5 117.221 436.478 112.905 449 106.721C461 103.221 472 106.721 477.5 115.221C481.5 124.221 477.715 131.925 467 134.221V139.221C480.032 137.683 486.5 128.721 484.5 117.221C480 105.721 470.966 100.781 459 100.221C458.053 100.217 457.111 100.208 456.171 100.197C455.56 100.189 454.951 100.181 454.342 100.173C447.301 100.081 440.381 99.9905 433 101.221C426.945 102.738 420.945 104.572 415 106.721C402.905 113.181 390.572 120.516 379 127.721C374.5 121.721 371.5 119.721 366 117.721C359.842 116.049 355.009 117.883 351.5 123.221C349.224 129.517 351.057 134.351 357 137.721C363 139.721 370.5 137.721 376.5 135.221C376.959 136.139 377.108 136.711 377.414 137.89L377.5 138.221C380.022 151.435 377.522 163.435 370 174.221C367.21 178.349 363.5 181.221 359 183.721C356.355 185.531 353.26 186.406 350 187.221C348 187.721 346.5 187.721 343.5 187.721C340 187.721 336.856 186.727 334 185.221C323.863 180.58 317.03 172.913 313.5 162.221C307.705 143.867 309 134.221 316.5 119.221C319.291 114.721 322.256 112.465 322.5 112.221C322.781 111.939 325 110 325 110C325 110 326.357 109.072 328.5 108C329 107.5 332.084 106.999 333 106.721C338.516 105.904 343.85 105.57 349 106.721C353.297 107.287 356.797 109.787 359.5 113.221C360.853 112.036 362.02 110.702 363 109.221C358.697 105.236 353.697 102.57 348 101.221C340.368 100.363 332.701 100.03 325 100.221C320.952 100.67 320.141 100.899 319.291 101.139L319.212 101.162L319 101.221L318.598 101.33C313.399 102.747 311.389 103.295 307 106.221C291 119.221 283.715 134.131 285.5 154.221C288.621 173.506 299.121 186.839 317 194.221C317.623 194.428 318.182 194.621 318.699 194.8C320.667 195.479 322.019 195.946 324 196.221C333.038 197.475 342.038 197.142 351 195.221C356.673 193.215 362.007 190.382 367 186.721C382.465 171.527 387.132 153.527 381 132.721C391.839 125.132 403.172 118.299 415 112.221L416 112.721C405.963 123.211 401.796 135.712 403.5 150.221C405.919 170.247 416.086 184.748 434 193.721C461.774 201.836 483.441 193.669 499 169.221C499.283 168.432 499.783 167.765 500.5 167.221C501 176.215 501.166 185.215 501 194.221H524C523.67 173.714 524.003 153.381 525 133.221C526.354 124.015 530.687 116.514 538 110.721C549.5 103.721 563.015 105.893 568.5 122.221L569.5 177.221C571.316 186.911 576.816 193.244 586 196.221C608.258 201.09 621.091 192.422 624.5 170.221C628.134 176.675 632.634 182.342 638 187.221C645.21 192.324 653.21 195.49 662 196.721C698 198.721 716 179.22 717.5 146.221C717.5 141.221 716.019 134.825 715 132.721C715.737 131.958 716.453 131.244 717.142 130.556C720.978 126.727 724.003 123.708 725.5 117.721C725.586 117.292 725.671 116.892 725.755 116.504C726.157 114.632 726.5 113.034 726.5 109.721H723.5C723.5 111.221 723.283 113.241 723 115.221C722 122.221 718.858 124.839 713.5 129.221C709 120.221 701.5 116.221 693 117.721C682.5 120.721 683.5 134.221 692 137.721C696.5 139.573 699.5 139.721 704 138.221C706.5 137.221 709 135.721 711.5 134.221C711.813 135.159 711.982 135.938 712.154 136.734C712.258 137.21 712.362 137.693 712.5 138.221C713.319 144.402 713.153 150.402 712 156.221C707.286 179.083 693.286 188.917 670 185.721C654 180.221 648.559 168.273 646.5 153.221C646.001 147.23 645.834 141.23 646 135.221C646.868 126.102 648.491 123.017 650.213 119.743C650.358 119.467 650.503 119.19 650.649 118.908C650.766 118.683 650.883 118.454 651 118.221C658 106.721 669.5 105.521 678.5 106.721C686 107.721 692 110.721 694.5 113.221L699 108.721C691.5 102.721 685.191 101.313 682 100.721C674.198 99.2732 668.5 99.2206 660 100.221C653.709 101.485 647.709 103.652 642 106.721C637 110.221 633 113.721 629 118.221C626.841 121.244 625.771 123.521 624.9 125.374C624.763 125.667 624.631 125.948 624.5 126.221C622.333 130.731 621.827 133.077 620.882 137.459L620.882 137.461L620.722 138.2C620.651 138.528 620.577 138.868 620.5 139.221C621.15 155.052 618.817 170.385 613.5 185.221C608.397 190.984 602.73 191.651 596.5 187.221C594.401 183.49 593.234 179.49 593 175.221C592.169 159.059 591.669 142.725 591.5 126.221C591 122.721 590.5 120.221 589 117.221C584.459 109.358 577.792 104.025 569 101.221C560.325 99.9696 552 100.221 543 101.721C535.532 104.188 529.865 108.355 526 115.221C525.513 116.194 525.013 117.194 524.5 118.221C524.5 97.7207 525 84.7205 525 68.2206C529.757 62.1386 534.09 55.8053 538 49.2206C544.638 35.7387 546.5 22.2205 543 11.7206C541.667 7.72059 538.77 3.14415 536 2.22057ZM709.101 132.354C709.534 132.001 709.997 131.623 710.5 131.221C708.461 122.721 699.761 119.721 697 119.721C690.5 119.221 688 124.735 688 127.221C688 131.721 691 135.721 697 136.721C703.745 136.721 705.233 135.507 709.101 132.354ZM375 130.721C371 133.721 366.694 135.721 362 135.721C357.306 135.721 353 130.534 353 127.221C353.5 122.721 357.306 119.721 362 119.721C366.5 120.221 372 123.221 375 130.721ZM525 60.2206C528.314 60.2206 540.5 39.3038 540.5 25.2206C540.5 11.1374 539 11.2206 537 8.22058C535 5.22058 526 4.7206 525 15.2206C525 29.3038 525 54.7206 525 60.2206Z" fill="#8F5E17"/>
</svg>
